<svg width="324" height="20" viewBox="0 0 324 20" fill="none" xmlns="http://www.w3.org/2000/svg">
<path d="M105.24 15.98C104.12 15.98 103.047 15.8333 102.02 15.54C100.994 15.2333 100.167 14.84 99.5405 14.36L100.64 11.92C101.24 12.3467 101.947 12.7 102.76 12.98C103.587 13.2467 104.42 13.38 105.26 13.38C105.9 13.38 106.414 13.32 106.8 13.2C107.2 13.0667 107.494 12.8867 107.68 12.66C107.867 12.4333 107.96 12.1733 107.96 11.88C107.96 11.5067 107.814 11.2133 107.52 11C107.227 10.7733 106.84 10.5933 106.36 10.46C105.88 10.3133 105.347 10.18 104.76 10.06C104.187 9.9267 103.607 9.7667 103.02 9.58C102.447 9.3933 101.92 9.1533 101.44 8.86C100.96 8.5667 100.567 8.18 100.26 7.7C99.9671 7.22 99.8205 6.60667 99.8205 5.86C99.8205 5.06 100.034 4.33333 100.46 3.68C100.9 3.01333 101.554 2.48667 102.42 2.1C103.3 1.7 104.4 1.5 105.72 1.5C106.6 1.5 107.467 1.60667 108.32 1.82C109.174 2.02 109.927 2.32667 110.58 2.74L109.58 5.2C108.927 4.82667 108.274 4.55333 107.62 4.38C106.967 4.19333 106.327 4.1 105.7 4.1C105.074 4.1 104.56 4.17333 104.16 4.32C103.76 4.46667 103.474 4.66 103.3 4.9C103.127 5.12667 103.04 5.39333 103.04 5.7C103.04 6.06 103.187 6.35333 103.48 6.58C103.774 6.7933 104.16 6.9667 104.64 7.1C105.12 7.2333 105.647 7.3667 106.22 7.5C106.807 7.6333 107.387 7.7867 107.96 7.96C108.547 8.1333 109.08 8.3667 109.56 8.66C110.04 8.9533 110.427 9.34 110.72 9.82C111.027 10.3 111.18 10.9067 111.18 11.64C111.18 12.4267 110.96 13.1467 110.52 13.8C110.08 14.4533 109.42 14.98 108.54 15.38C107.674 15.78 106.574 15.98 105.24 15.98ZM113.174 15.74V4.98H116.294V15.74H113.174ZM114.734 3.48C114.161 3.48 113.694 3.31333 113.334 2.98C112.974 2.64667 112.794 2.23333 112.794 1.74C112.794 1.24667 112.974 0.83333 113.334 0.5C113.694 0.16667 114.161 0 114.734 0C115.308 0 115.774 0.16 116.134 0.48C116.494 0.78667 116.674 1.18667 116.674 1.68C116.674 2.2 116.494 2.63333 116.134 2.98C115.788 3.31333 115.321 3.48 114.734 3.48ZM124.25 19.78C123.237 19.78 122.257 19.6533 121.31 19.4C120.377 19.16 119.597 18.7933 118.97 18.3L120.21 16.06C120.663 16.4333 121.237 16.7267 121.93 16.94C122.637 17.1667 123.33 17.28 124.01 17.28C125.117 17.28 125.917 17.0333 126.41 16.54C126.917 16.0467 127.17 15.3133 127.17 14.34V12.72L127.37 10.02L127.33 7.3V4.98H130.29V13.94C130.29 15.94 129.77 17.4133 128.73 18.36C127.69 19.3067 126.197 19.78 124.25 19.78ZM123.77 15.22C122.77 15.22 121.863 15.0067 121.05 14.58C120.25 14.14 119.603 13.5333 119.11 12.76C118.63 11.9733 118.39 11.06 118.39 10.02C118.39 8.9667 118.63 8.0533 119.11 7.28C119.603 6.49333 120.25 5.88667 121.05 5.46C121.863 5.03333 122.77 4.82 123.77 4.82C124.677 4.82 125.477 5.00667 126.17 5.38C126.863 5.74 127.403 6.30667 127.79 7.08C128.177 7.84 128.37 8.82 128.37 10.02C128.37 11.2067 128.177 12.1867 127.79 12.96C127.403 13.72 126.863 14.2867 126.17 14.66C125.477 15.0333 124.677 15.22 123.77 15.22ZM124.39 12.66C124.937 12.66 125.423 12.5533 125.85 12.34C126.277 12.1133 126.61 11.8 126.85 11.4C127.09 11 127.21 10.54 127.21 10.02C127.21 9.4867 127.09 9.0267 126.85 8.64C126.61 8.24 126.277 7.9333 125.85 7.72C125.423 7.4933 124.937 7.38 124.39 7.38C123.843 7.38 123.357 7.4933 122.93 7.72C122.503 7.9333 122.163 8.24 121.91 8.64C121.67 9.0267 121.55 9.4867 121.55 10.02C121.55 10.54 121.67 11 121.91 11.4C122.163 11.8 122.503 12.1133 122.93 12.34C123.357 12.5533 123.843 12.66 124.39 12.66ZM139.734 4.82C140.587 4.82 141.347 4.99333 142.014 5.34C142.694 5.67333 143.227 6.19333 143.614 6.9C144.001 7.5933 144.194 8.4867 144.194 9.58V15.74H141.074V10.06C141.074 9.1933 140.881 8.5533 140.494 8.14C140.121 7.7267 139.587 7.52 138.894 7.52C138.401 7.52 137.954 7.6267 137.554 7.84C137.167 8.04 136.861 8.3533 136.634 8.78C136.421 9.2067 136.314 9.7533 136.314 10.42V15.74H133.194V4.98H136.174V7.96L135.614 7.06C136.001 6.34 136.554 5.78667 137.274 5.4C137.994 5.01333 138.814 4.82 139.734 4.82ZM152.686 15.74V4.98H155.806V15.74H152.686ZM154.246 3.48C153.673 3.48 153.206 3.31333 152.846 2.98C152.486 2.64667 152.306 2.23333 152.306 1.74C152.306 1.24667 152.486 0.83333 152.846 0.5C153.206 0.16667 153.673 0 154.246 0C154.819 0 155.286 0.16 155.646 0.48C156.006 0.78667 156.186 1.18667 156.186 1.68C156.186 2.2 156.006 2.63333 155.646 2.98C155.299 3.31333 154.833 3.48 154.246 3.48ZM165.242 4.82C166.095 4.82 166.855 4.99333 167.522 5.34C168.202 5.67333 168.735 6.19333 169.122 6.9C169.508 7.5933 169.702 8.4867 169.702 9.58V15.74H166.582V10.06C166.582 9.1933 166.388 8.5533 166.002 8.14C165.628 7.7267 165.095 7.52 164.402 7.52C163.908 7.52 163.462 7.6267 163.062 7.84C162.675 8.04 162.368 8.3533 162.142 8.78C161.928 9.2067 161.822 9.7533 161.822 10.42V15.74H158.702V4.98H161.682V7.96L161.122 7.06C161.508 6.34 162.062 5.78667 162.782 5.4C163.502 5.01333 164.322 4.82 165.242 4.82ZM180.654 15.74L176.774 4.98H179.714L182.934 14.24H181.534L184.894 4.98H187.534L190.794 14.24H189.394L192.714 4.98H195.474L191.574 15.74H188.554L185.694 7.8H186.614L183.654 15.74H180.654ZM196.924 15.74V4.98H200.044V15.74H196.924ZM198.484 3.48C197.911 3.48 197.444 3.31333 197.084 2.98C196.724 2.64667 196.544 2.23333 196.544 1.74C196.544 1.24667 196.724 0.83333 197.084 0.5C197.444 0.16667 197.911 0 198.484 0C199.058 0 199.524 0.16 199.884 0.48C200.244 0.78667 200.424 1.18667 200.424 1.68C200.424 2.2 200.244 2.63333 199.884 2.98C199.538 3.31333 199.071 3.48 198.484 3.48ZM207.34 15.9C206.073 15.9 205.087 15.58 204.38 14.94C203.673 14.2867 203.32 13.32 203.32 12.04V2.6H206.44V12C206.44 12.4533 206.56 12.8067 206.8 13.06C207.04 13.3 207.367 13.42 207.78 13.42C208.273 13.42 208.693 13.2867 209.04 13.02L209.88 15.22C209.56 15.4467 209.173 15.62 208.72 15.74C208.28 15.8467 207.82 15.9 207.34 15.9ZM201.66 7.62V5.22H209.12V7.62H201.66ZM218.171 4.82C219.025 4.82 219.785 4.99333 220.451 5.34C221.131 5.67333 221.665 6.19333 222.051 6.9C222.438 7.5933 222.631 8.4867 222.631 9.58V15.74H219.511V10.06C219.511 9.1933 219.318 8.5533 218.931 8.14C218.558 7.7267 218.025 7.52 217.331 7.52C216.838 7.52 216.391 7.6267 215.991 7.84C215.605 8.04 215.298 8.3533 215.071 8.78C214.858 9.2067 214.751 9.7533 214.751 10.42V15.74H211.631V0.9H214.751V7.96L214.051 7.06C214.438 6.34 214.991 5.78667 215.711 5.4C216.431 5.01333 217.251 4.82 218.171 4.82Z" fill="black"/>
<path d="M2 10.1313H47H92" stroke="black" stroke-width="3" stroke-linecap="round"/>
<path d="M232 10.1313H322" stroke="black" stroke-width="3" stroke-linecap="round"/>
</svg>
