<?xml version="1.0" encoding="UTF-8"?>
<svg xmlns="http://www.w3.org/2000/svg" xmlns:xlink="http://www.w3.org/1999/xlink" version="1.1" viewBox="0 0 2160 1800">
  <!-- Generator: Adobe Illustrator 29.0.1, SVG Export Plug-In . SVG Version: 2.1.0 Build 192)  -->
  <defs>
    <style>
      .st0 {
        fill: #82f3ff;
      }

      .st1 {
        fill: #231f20;
      }

      .st2 {
        fill: #ff7c1f;
      }

      .st3 {
        fill: #018dda;
      }

      .st4 {
        fill: #c7c7c7;
      }

      .st5 {
        fill: #fff;
      }

      .st6 {
        fill: #3dd7e8;
      }

      .st7 {
        opacity: .5;
      }

      .st8 {
        opacity: 0;
      }

      .st9 {
        fill: #c2f9ff;
      }

      .st10 {
        fill: #ffc721;
      }
    </style>
  </defs>
  <g id="Layer_1">
    <path class="st0" d="M2060.7,1591.8l-1752.6,51.1c-48.4,1.4-89.4-23.5-91.5-55.5L127.9,248.4c-2.1-32.1,35.4-59.2,83.8-60.6l1752.6-51.1c48.4-1.4,89.4,23.5,91.5,55.5l88.8,1338.9c2.1,32.1-35.4,59.2-83.8,60.6Z"/>
    <path class="st6" d="M2022.1,1641.7l-1802,3.1c-48.5,0-87.8-25.9-88-58l-5.2-1340.1c-.1-32.1,39.1-58.2,87.5-58.3l1802-3.1c48.5,0,87.8,25.9,88,58l5.2,1340.1c.1,32.1-39.1,58.2-87.5,58.3Z"/>
    <rect class="st5" x="372.4" y="297.3" width="1561" height="1215.3" rx="53.3" ry="53.3" transform="translate(-2.3 3) rotate(-.1)"/>
    <circle class="st9" cx="236.8" cy="398.9" r="50.8"/>
    <circle class="st9" cx="238" cy="582.8" r="50.8"/>
    <circle class="st9" cx="239.1" cy="761.9" r="50.8"/>
    <path class="st1" d="M42.4,460.4c21.5-3.8,42.9-7.5,64.4-11.3,34.2-6,68.4-12,102.7-18s15.7-2.8,23.6-4.2,9.4-8.4,7.9-13.8-7.8-8.9-13.8-7.9c-21.5,3.8-42.9,7.5-64.4,11.3-34.2,6-68.4,12-102.7,18-7.9,1.4-15.7,2.8-23.6,4.2s-9.4,8.4-7.9,13.8,7.8,8.9,13.8,7.9h0Z"/>
    <path class="st1" d="M42.8,645.7c21.5-3.8,42.9-7.6,64.4-11.4,34.2-6.1,68.4-12.1,102.6-18.2,7.9-1.4,15.7-2.8,23.6-4.2s9.4-8.4,7.9-13.8-7.8-8.9-13.8-7.9c-21.5,3.8-42.9,7.6-64.4,11.4-34.2,6.1-68.4,12.1-102.6,18.2-7.9,1.4-15.7,2.8-23.6,4.2s-9.4,8.4-7.9,13.8,7.8,8.9,13.8,7.9h0Z"/>
    <path class="st1" d="M48.6,824.5c21.4-4,42.8-8.1,64.3-12.1,34.1-6.4,68.3-12.9,102.4-19.3,7.9-1.5,15.7-3,23.6-4.4s9.4-8.3,7.9-13.8-7.8-9-13.8-7.9c-21.4,4-42.8,8.1-64.3,12.1-34.1,6.4-68.3,12.9-102.4,19.3-7.9,1.5-15.7,3-23.6,4.4-6,1.1-9.4,8.3-7.9,13.8s7.8,9,13.8,7.9h0Z"/>
    <circle class="st9" cx="236.8" cy="1066.9" r="50.8"/>
    <circle class="st9" cx="238" cy="1250.8" r="50.8"/>
    <circle class="st9" cx="239.1" cy="1429.9" r="50.8"/>
    <path class="st1" d="M42.4,1128.5c21.5-3.8,42.9-7.5,64.4-11.3,34.2-6,68.4-12,102.7-18,7.9-1.4,15.7-2.8,23.6-4.2,6-1.1,9.4-8.4,7.9-13.8-1.7-6.3-7.8-8.9-13.8-7.9-21.5,3.8-42.9,7.5-64.4,11.3-34.2,6-68.4,12-102.7,18-7.9,1.4-15.7,2.8-23.6,4.2s-9.4,8.4-7.9,13.8,7.8,8.9,13.8,7.9h0Z"/>
    <path class="st1" d="M42.8,1313.8c21.5-3.8,42.9-7.6,64.4-11.4,34.2-6.1,68.4-12.1,102.6-18.2s15.7-2.8,23.6-4.2c6-1.1,9.4-8.4,7.9-13.8-1.7-6.3-7.8-8.9-13.8-7.9-21.5,3.8-42.9,7.6-64.4,11.4-34.2,6.1-68.4,12.1-102.6,18.2-7.9,1.4-15.7,2.8-23.6,4.2-6,1.1-9.4,8.4-7.9,13.8,1.7,6.3,7.8,8.9,13.8,7.9h0Z"/>
    <path class="st1" d="M48.6,1492.6c21.4-4,42.8-8.1,64.3-12.1,34.1-6.4,68.3-12.9,102.4-19.3,7.9-1.5,15.7-3,23.6-4.4,6-1.1,9.4-8.3,7.9-13.8s-7.8-9-13.8-7.9c-21.4,4-42.8,8.1-64.3,12.1-34.1,6.4-68.3,12.9-102.4,19.3-7.9,1.5-15.7,3-23.6,4.4s-9.4,8.3-7.9,13.8,7.8,9,13.8,7.9h0Z"/>
  </g>
  <g id="Layer_3">
    <g>
      <path class="st10" d="M1785.7,621.7l-1022.2,713.2-156.7-219.6,1020.3-725.7c7.9-5.5,18.1-2.3,23.7,5.6l38.6,48.1c21.5,28.2,41.3,57.7,59.4,88.2l38.7,65.4c5.5,7.9,6.1,19.3-1.8,24.8Z"/>
      <g>
        <path class="st2" d="M657.2,1081.3l-50.3,34-9.5,36.9s-63.8,55.9-99.4,109c0,0,2.4,51.6,93.9,127.9,0,0,70.6-15.7,126.5-53.8l44.3-1.3,51.1-35.4-109.7-62.4s-17.3-8.6-26.1-36.6c0,0-10.8-27.6-20.7-118.3Z"/>
        <g class="st7">
          <image width="1119" height="1260" transform="translate(564.9 1062.2) scale(.2)" xlink:href="epipen-1.png"/>
        </g>
        <path class="st2" d="M657,1079.6l-50.2,35.4-9.5,37.1,28.4,96.3,92.5,86.5,45.2-.3,51.7-36.1-111.4-64.1s-17.3-8.6-26.1-36.6c0,0-10.8-27.6-20.7-118.3Z"/>
      </g>
      <polygon class="st4" points="1782 626 1577.3 767.9 1418.2 538.3 1621.2 394 1782 626"/>
      <path class="st3" d="M1613,399.5l18.7,15.8c4.7,4,8.9,8.5,12.5,13.5l28.8,39.8s-64.1,45.6-59.8,57.6c4.8,13,42.9,62.2,42.9,62.2,0,0,6.6,9.7,29.5-3.4l47.9-29.6,42.1,74.5,13.5-9.6c3.8-2.7,5.4-7.5,4-12s-3.6-9.8-7.6-18.4c-13.4-29.1-116-178.3-128.5-190.1,0,0-13.6-14.8-16.1-14.9,0,0-3.3-1.8-7.4.2l-20.4,14.1Z"/>
      <polygon class="st4" points="1492.6 756 1241.9 929.7 1118.4 751.5 1367 574.7 1492.6 756"/>
      <polygon points="1492.6 756 1241.9 929.8 1275.4 978 1525.4 803.3 1492.6 756"/>
    </g>
    <g class="st8">
      <image width="5336" height="1038" transform="translate(560 1259.4) scale(.2)" xlink:href="epipen-2.png"/>
    </g>
  </g>
</svg>