<?xml version="1.0" encoding="UTF-8"?>
<svg id="Layer_1" xmlns="http://www.w3.org/2000/svg" version="1.1" viewBox="0 0 2160 1800">
  <!-- Generator: Adobe Illustrator 29.0.1, SVG Export Plug-In . SVG Version: 2.1.0 Build 192)  -->
  <defs>
    <style>
      .st0 {
        fill: #ffabab;
      }

      .st1 {
        fill: #044a61;
        font-size: 205px;
      }

      .st1, .st2 {
        font-family: LoveYaLikeASister-Regular, 'Love Ya Like A Sister';
      }

      .st3 {
        fill: #82f3ff;
      }

      .st4 {
        fill: none;
        stroke: #2b250f;
      }

      .st4, .st5 {
        stroke-miterlimit: 10;
      }

      .st6 {
        fill: #231f20;
      }

      .st7 {
        fill: #ff2929;
      }

      .st8 {
        fill: #9ca8ad;
      }

      .st5 {
        fill: #c9ebf0;
        stroke: #3a648a;
        stroke-width: 25px;
      }

      .st9 {
        fill: #fff;
      }

      .st10 {
        fill: #3dd7e8;
      }

      .st11 {
        fill: #3a648a;
      }

      .st12 {
        opacity: .5;
      }

      .st13 {
        fill: #c2f9ff;
      }

      .st2 {
        fill: #7f3f98;
        font-size: 200px;
      }

      .st14 {
        fill: #ffd959;
      }

      .st15 {
        fill: #8c0088;
      }
    </style>
  </defs>
  <path class="st3" d="M2060.7,1591.8l-1752.6,51.1c-48.4,1.4-89.4-23.5-91.5-55.5L127.9,248.4c-2.1-32.1,35.4-59.2,83.8-60.6l1752.6-51.1c48.4-1.4,89.4,23.5,91.5,55.5l88.8,1338.9c2.1,32.1-35.4,59.2-83.8,60.6Z"/>
  <path class="st10" d="M2022.1,1641.7l-1802,3.1c-48.5,0-87.8-25.9-88-58l-5.2-1340.1c-.1-32.1,39.1-58.2,87.5-58.3l1802-3.1c48.5,0,87.8,25.9,88,58l5.2,1340.1c.1,32.1-39.1,58.2-87.5,58.3Z"/>
  <rect class="st9" x="372.4" y="297.3" width="1561" height="1215.3" rx="53.3" ry="53.3" transform="translate(-2.3 3) rotate(-.1)"/>
  <circle class="st13" cx="236.8" cy="398.9" r="50.8"/>
  <circle class="st13" cx="238" cy="582.8" r="50.8"/>
  <circle class="st13" cx="239.1" cy="761.9" r="50.8"/>
  <path class="st6" d="M42.4,460.4c21.5-3.8,42.9-7.5,64.4-11.3,34.2-6,68.4-12,102.7-18s15.7-2.8,23.6-4.2,9.4-8.4,7.9-13.8-7.8-8.9-13.8-7.9c-21.5,3.8-42.9,7.5-64.4,11.3-34.2,6-68.4,12-102.7,18-7.9,1.4-15.7,2.8-23.6,4.2s-9.4,8.4-7.9,13.8,7.8,8.9,13.8,7.9h0Z"/>
  <path class="st6" d="M42.8,645.7c21.5-3.8,42.9-7.6,64.4-11.4,34.2-6.1,68.4-12.1,102.6-18.2,7.9-1.4,15.7-2.8,23.6-4.2s9.4-8.4,7.9-13.8-7.8-8.9-13.8-7.9c-21.5,3.8-42.9,7.6-64.4,11.4-34.2,6.1-68.4,12.1-102.6,18.2-7.9,1.4-15.7,2.8-23.6,4.2s-9.4,8.4-7.9,13.8,7.8,8.9,13.8,7.9h0Z"/>
  <path class="st6" d="M48.6,824.5c21.4-4,42.8-8.1,64.3-12.1,34.1-6.4,68.3-12.9,102.4-19.3,7.9-1.5,15.7-3,23.6-4.4s9.4-8.3,7.9-13.8-7.8-9-13.8-7.9c-21.4,4-42.8,8.1-64.3,12.1-34.1,6.4-68.3,12.9-102.4,19.3-7.9,1.5-15.7,3-23.6,4.4-6,1.1-9.4,8.3-7.9,13.8s7.8,9,13.8,7.9h0Z"/>
  <circle class="st13" cx="236.8" cy="1066.9" r="50.8"/>
  <circle class="st13" cx="238" cy="1250.8" r="50.8"/>
  <circle class="st13" cx="239.1" cy="1429.9" r="50.8"/>
  <path class="st6" d="M42.4,1128.5c21.5-3.8,42.9-7.5,64.4-11.3,34.2-6,68.4-12,102.7-18,7.9-1.4,15.7-2.8,23.6-4.2,6-1.1,9.4-8.4,7.9-13.8-1.7-6.3-7.8-8.9-13.8-7.9-21.5,3.8-42.9,7.5-64.4,11.3-34.2,6-68.4,12-102.7,18-7.9,1.4-15.7,2.8-23.6,4.2s-9.4,8.4-7.9,13.8,7.8,8.9,13.8,7.9h0Z"/>
  <path class="st6" d="M42.8,1313.8c21.5-3.8,42.9-7.6,64.4-11.4,34.2-6.1,68.4-12.1,102.6-18.2s15.7-2.8,23.6-4.2c6-1.1,9.4-8.4,7.9-13.8-1.7-6.3-7.8-8.9-13.8-7.9-21.5,3.8-42.9,7.6-64.4,11.4-34.2,6.1-68.4,12.1-102.6,18.2-7.9,1.4-15.7,2.8-23.6,4.2-6,1.1-9.4,8.4-7.9,13.8,1.7,6.3,7.8,8.9,13.8,7.9h0Z"/>
  <path class="st6" d="M48.6,1492.6c21.4-4,42.8-8.1,64.3-12.1,34.1-6.4,68.3-12.9,102.4-19.3,7.9-1.5,15.7-3,23.6-4.4,6-1.1,9.4-8.3,7.9-13.8s-7.8-9-13.8-7.9c-21.4,4-42.8,8.1-64.3,12.1-34.1,6.4-68.3,12.9-102.4,19.3-7.9,1.5-15.7,3-23.6,4.4s-9.4,8.3-7.9,13.8,7.8,9,13.8,7.9h0Z"/>
  <text class="st2" transform="translate(743.5 1372.2) rotate(1.7)"><tspan x="0" y="0">How to help?</tspan></text>
  <text class="st1" transform="translate(464.8 1183.1) rotate(-5.5)"><tspan x="0" y="0">What to learn?</tspan></text>
  <g>
    <circle class="st5" cx="1013.2" cy="574.3" r="230.1" transform="translate(-109.4 884.7) rotate(-45)"/>
    <path class="st11" d="M1224.8,691.9c34,15,67.9,30,101.9,45,54,23.9,108,47.7,162.1,71.6,12.3,5.4,24.6,10.9,36.8,16.3s16.1,2.2,20.5-5.4,2.1-17.2-5.4-20.5c-34-15-67.9-30-101.9-45-54-23.9-108-47.7-162.1-71.6-12.3-5.4-24.6-10.9-36.8-16.3-7.4-3.3-16.1-2.2-20.5,5.4s-2.1,17.2,5.4,20.5h0Z"/>
  </g>
  <g>
    <g>
      <rect class="st0" x="923.8" y="587.1" width="58.3" height="158.1" rx="12" ry="12" transform="translate(-5.8 8.4) rotate(-.5)"/>
      <rect class="st0" x="923.8" y="587.1" width="58.3" height="158.1" rx="12" ry="12" transform="translate(1610.9 -292.6) rotate(89.5)"/>
    </g>
    <g>
      <rect class="st7" x="916.8" y="579.6" width="58.3" height="158.1" rx="12" ry="12" transform="translate(-5.7 8.3) rotate(-.5)"/>
      <rect class="st7" x="916.8" y="579.6" width="58.3" height="158.1" rx="12" ry="12" transform="translate(1596.3 -293) rotate(89.5)"/>
    </g>
  </g>
  <g>
    <g class="st12">
      <path class="st14" d="M1177.5,497.1c15.9,27.8,18.7,73.3,1.5,94.5-27.9,34.4,17.8,70.7-25.3,82.8-37.3,10.5-23.4-41.7-63.7-56.6-27.3-10.1-48.2-56.9-48.4-81.8-.4-43.7,24.4-72.2,49.6-79.1s63.3,0,86.4,40.2Z"/>
      <path class="st4" d="M1131.7,648l-39.9-96.1c-5-9-15.8-6.7-19.3-1.7-2,2.9-2.7,8.9,8.4,14,19.2,8.7,42.7-21.9,38.7-28.9-4-7-28,1.6-14.5,17.2,13.4,15.6,51.8-7.2,48.3-23.4-3.5-16.3-26.6-.8-18.3,18.2,8.3,19,8.3,66.9,23.2,88,14.9,21.1-26.7,12.7-26.7,12.7Z"/>
      <rect class="st8" x="1117" y="638.4" width="58.4" height="12.6" rx="3.8" ry="3.8" transform="translate(-130 327.2) rotate(-15.4)"/>
      <rect class="st8" x="1120.4" y="650.5" width="58.4" height="12.6" rx="3.8" ry="3.8" transform="translate(-133.1 328.6) rotate(-15.4)"/>
      <rect class="st8" x="1123.6" y="662.2" width="58.4" height="12.6" rx="3.8" ry="3.8" transform="translate(-136 329.8) rotate(-15.4)"/>
    </g>
    <g>
      <path class="st14" d="M1167.4,494.2c15.9,27.8,18.7,73.3,1.5,94.5-27.9,34.4,17.8,70.7-25.3,82.8-37.3,10.5-23.4-41.7-63.7-56.6-27.3-10.1-48.2-56.9-48.4-81.8-.4-43.7,24.4-72.2,49.6-79.1,25.6-7,63.3,0,86.4,40.2Z"/>
      <path class="st4" d="M1121.5,645.1l-39.9-96.1c-5-9-15.8-6.7-19.3-1.7-2,2.9-2.7,8.9,8.4,14,19.2,8.7,42.7-21.9,38.7-28.9-4-7-28,1.6-14.5,17.2,13.4,15.6,51.8-7.2,48.3-23.4-3.5-16.3-26.6-.8-18.3,18.2,8.3,19,8.3,66.9,23.2,88,14.9,21.1-26.7,12.7-26.7,12.7Z"/>
      <rect class="st8" x="1106.9" y="635.5" width="58.4" height="12.6" rx="3.8" ry="3.8" transform="translate(-129.6 324.4) rotate(-15.4)"/>
      <rect class="st8" x="1110.2" y="647.6" width="58.4" height="12.6" rx="3.8" ry="3.8" transform="translate(-132.7 325.8) rotate(-15.4)"/>
      <rect class="st8" x="1113.4" y="659.3" width="58.4" height="12.6" rx="3.8" ry="3.8" transform="translate(-135.6 327) rotate(-15.4)"/>
    </g>
  </g>
  <g>
    <g>
      <g>
        <path class="st15" d="M894.4,453.7s-7.9-7.3-1.9-22.7c6.5-16.7,20.6-23.8,20.6-23.8,0,0,17.5-13.5,48.4-6.2s34.2,34.2,34.2,34.2c0,0,5.2,20-13.2,35.4l-20.4,19s-5.1,3.2-7.1,15.6-12,12.6-12,12.6c0,0-12.4,2.3-16.1-9.8-3.8-12.1,4.9-26.8,4.9-26.8,0,0,2.2-6.2,17.3-18.3,15.1-12.1,14.7-17.8,14.7-17.8,0,0,4.1-14.2-13.2-20.1,0,0-14.5-2.9-21.2,4.3,0,0-6.4,7.4-9,17.4-2.6,10-11.7,11.4-11.7,11.4,0,0-8.6,1.5-14.2-4.4Z"/>
        <ellipse class="st15" cx="942" cy="540.2" rx="16.9" ry="15.5"/>
      </g>
      <g>
        <path class="st15" d="M864,505s-5.5-2.4-5.2-11.7c.4-10.1,6.6-16.5,6.6-16.5,0,0,6.9-10.4,24.7-12.2,17.8-1.8,24.5,11.9,24.5,11.9,0,0,6.4,9.7-.5,21.3l-7.4,13.9s-2.1,2.6-.9,9.6c1.2,6.9-4.1,8.9-4.1,8.9,0,0-6.2,3.5-10.4-2.3s-2.4-15.2-2.4-15.2c0,0,0-3.7,5.9-12.9,5.8-9.2,4.5-12.2,4.5-12.2,0,0-.4-8.3-10.8-8.3,0,0-8.2,1.1-10.5,6.2,0,0-2,5.1-1.6,11s-4.1,8.2-4.1,8.2c0,0-4.3,2.4-8.4.3Z"/>
        <ellipse class="st15" cx="905.2" cy="542.3" rx="9.5" ry="8.7" transform="translate(-127.5 325.5) rotate(-19.1)"/>
      </g>
      <g>
        <path class="st15" d="M979.5,495.4s-.5-3.9,4.8-6.7,11.3-1.8,11.3-1.8c0,0,8,.4,14.9,9.7s1.5,17.5,1.5,17.5c0,0-3.3,6.8-12,6.7l-10.1.5s-2.2-.3-5.6,2.7-6.3.7-6.3.7c0,0-4-2.3-2.2-6.5s7.6-6.3,7.6-6.3c0,0,2.1-1.2,9.1-1s8.2-1.5,8.2-1.5c0,0,4.5-3,1-8.7,0,0-3.3-4.2-6.9-3.8,0,0-3.5.5-6.6,2.7s-5.9.4-5.9.4c0,0-2.8-1.6-2.9-4.5Z"/>
        <ellipse class="st15" cx="972.4" cy="530.6" rx="5.6" ry="6.2" transform="translate(-60.8 930) rotate(-49.8)"/>
      </g>
    </g>
    <g class="st12">
      <g>
        <path class="st15" d="M897.3,455s-7.9-7.3-1.9-22.7c6.5-16.7,20.6-23.8,20.6-23.8,0,0,17.5-13.5,48.4-6.2,30.9,7.3,34.2,34.2,34.2,34.2,0,0,5.2,20-13.2,35.4l-20.4,19s-5.1,3.2-7.1,15.6-12,12.6-12,12.6c0,0-12.4,2.3-16.1-9.8s4.9-26.8,4.9-26.8c0,0,2.2-6.2,17.3-18.3s14.7-17.8,14.7-17.8c0,0,4.1-14.2-13.2-20.1,0,0-14.5-2.9-21.2,4.3,0,0-6.4,7.4-9,17.4s-11.7,11.4-11.7,11.4c0,0-8.6,1.5-14.2-4.4Z"/>
        <ellipse class="st15" cx="944.8" cy="541.4" rx="16.9" ry="15.5"/>
      </g>
      <g>
        <path class="st15" d="M866.9,506.2s-5.5-2.4-5.2-11.7c.4-10.1,6.6-16.5,6.6-16.5,0,0,6.9-10.4,24.7-12.2,17.8-1.8,24.5,11.9,24.5,11.9,0,0,6.4,9.7-.5,21.3l-7.4,13.9s-2.1,2.6-.9,9.6c1.2,6.9-4.1,8.9-4.1,8.9,0,0-6.2,3.5-10.4-2.3s-2.4-15.2-2.4-15.2c0,0,0-3.7,5.9-12.9,5.8-9.2,4.5-12.2,4.5-12.2,0,0-.4-8.3-10.8-8.3,0,0-8.2,1.1-10.5,6.2,0,0-2,5.1-1.6,11s-4.1,8.2-4.1,8.2c0,0-4.3,2.4-8.4.3Z"/>
        <ellipse class="st15" cx="908.1" cy="543.5" rx="9.5" ry="8.7" transform="translate(-127.7 326.5) rotate(-19.1)"/>
      </g>
      <g>
        <path class="st15" d="M982.4,496.6s-.5-3.9,4.8-6.7c5.7-3.1,11.3-1.8,11.3-1.8,0,0,8,.4,14.9,9.7,6.9,9.3,1.5,17.5,1.5,17.5,0,0-3.3,6.8-12,6.7l-10.1.5s-2.2-.3-5.6,2.7c-3.5,3-6.3.7-6.3.7,0,0-4-2.3-2.2-6.5s7.6-6.3,7.6-6.3c0,0,2.1-1.2,9.1-1s8.2-1.5,8.2-1.5c0,0,4.5-3,1-8.7,0,0-3.3-4.2-6.9-3.8,0,0-3.5.5-6.6,2.7s-5.9.4-5.9.4c0,0-2.8-1.6-2.9-4.5Z"/>
        <ellipse class="st15" cx="975.3" cy="531.8" rx="5.6" ry="6.2" transform="translate(-60.7 932.6) rotate(-49.8)"/>
      </g>
    </g>
  </g>
</svg>